<svg xmlns="http://www.w3.org/2000/svg" height="50" width="50" viewBox="0 0 512 512"><title>Device_Computer</title><g id="Device_Computer" data-name="Device Computer"><g id="Device_Computer-2" data-name="Device Computer"><path d="M345.9537,182.4178H166.0463a.35.35,0,0,0-.35.35V304.9208a.3517.3517,0,0,0,.3506.3506H345.9527a.3517.3517,0,0,0,.3506-.3506V182.7674A.35.35,0,0,0,345.9537,182.4178Z"/><path d="M255.9955,73.82C155.3872,73.82,73.8247,155.3827,73.8247,256c0,100.5993,81.5625,182.18,182.1708,182.18s182.18-81.5715,182.18-182.18A182.1828,182.1828,0,0,0,255.9955,73.82ZM368.3462,302.116a25.2027,25.2027,0,0,1-25.1983,25.1982H285.8872v14.0715h28.9161a9.4527,9.4527,0,0,1,0,18.9054H197.1967a9.4527,9.4527,0,0,1,0-18.9054h28.9071V327.3142H168.8432a25.2027,25.2027,0,0,1-25.1983-25.1982V185.5642a25.1975,25.1975,0,0,1,25.1983-25.1982H343.1479a25.1976,25.1976,0,0,1,25.1983,25.1982Z"/></g></g></svg>