<svg id="icons" xmlns="http://www.w3.org/2000/svg" viewBox="0 0 340 340"><rect x="59.761" y="10" width="220.478" height="320" rx="19.215" style="fill:#88b0ea"/><rect x="79.924" y="43.608" width="180.152" height="246.777" style="fill:#fff"/><path d="M178.639,310.211c-.353,11.419-16.927,11.417-17.278,0C161.714,298.792,178.288,298.8,178.639,310.211Z" style="fill:#fff"/><path d="M197.588,210.031l-1.338-20.172a38.081,38.081,0,0,0-7.144-20.087c-11.343-16.808-38.876-16.818-50.224,0a38.1,38.1,0,0,0-7.144,20.087L130.4,210.031a10.357,10.357,0,0,0,10.334,11.042c11.6-.011,34.928.009,46.52,0A10.356,10.356,0,0,0,197.588,210.031Z" style="fill:#ffd071"/><path d="M190.644,111.489a26.65,26.65,0,0,1-26.65,26.65c-35.278-1.219-35.269-52.085,0-53.3A26.649,26.649,0,0,1,190.644,111.489Z" style="fill:#ffd071"/><path d="M228.948,217.914a35.661,35.661,0,0,1-35.661,35.662c-47.207-1.632-47.195-69.7,0-71.323A35.661,35.661,0,0,1,228.948,217.914Z" style="fill:#fff"/><path d="M203.65,213.914h-6.363v-6.363a4,4,0,0,0-8,0v6.363h-6.363a4,4,0,1,0,0,8h6.363v6.364a4,4,0,0,0,8,0v-6.364h6.363C208.908,221.825,208.907,214,203.65,213.914Z" style="fill:#83db7d"/><path d="M174,26.9c-.09,5.258-7.911,5.257-8,0C166.089,21.641,173.911,21.642,174,26.9Z" style="fill:#fff"/><path d="M261.024,334H78.976a23.241,23.241,0,0,1-23.215-23.215V29.215A23.241,23.241,0,0,1,78.976,6H261.024a23.241,23.241,0,0,1,23.215,23.215v281.57A23.241,23.241,0,0,1,261.024,334ZM78.976,14A15.232,15.232,0,0,0,63.761,29.215v281.57A15.232,15.232,0,0,0,78.976,326H261.024a15.232,15.232,0,0,0,15.215-15.215V29.215A15.232,15.232,0,0,0,261.024,14Z" style="fill:#383a49"/><path d="M260.076,294.386H79.924a4,4,0,0,1-4-4V43.608a4,4,0,0,1,4-4H260.076a4,4,0,0,1,4,4V290.386A4,4,0,0,1,260.076,294.386Zm-176.152-8H256.076V47.608H83.924Z" style="fill:#383a49"/><path d="M163.994,142.139a30.685,30.685,0,0,1-30.65-30.65c1.44-40.565,59.867-40.554,61.3,0A30.684,30.684,0,0,1,163.994,142.139Zm0-53.3a22.675,22.675,0,0,0-22.65,22.649c1.064,29.977,44.241,29.969,45.3,0A22.675,22.675,0,0,0,163.994,88.84Z" style="fill:#383a49"/><path d="M141.334,225.073H137.82A12.231,12.231,0,0,1,125.7,212.029l1.643-22.3c1.86-18.141,11.575-36.034,36.65-36.6,18.667,0,27.922,11.04,32.4,20.3,1.455,3.6,5.589,10.431-.055,12.355-5.422,1.21-5.154-5.686-7.147-8.872-8.9-21.1-41.493-21.1-50.391,0-4.475,7.853-4.1,26.757-5.12,35.7a4.11,4.11,0,0,0,1.1,3.13c1.379,1.823,4.6,1.24,6.556,1.326C146.594,217.154,146.587,224.991,141.334,225.073Z" style="fill:#383a49"/><path d="M193.287,257.575a39.706,39.706,0,0,1-39.661-39.661c1.863-52.492,77.467-52.479,79.322,0A39.706,39.706,0,0,1,193.287,257.575Zm0-71.322a31.7,31.7,0,0,0-31.661,31.661c1.487,41.9,61.841,41.893,63.322,0A31.7,31.7,0,0,0,193.287,186.253Z" style="fill:#383a49"/></svg>