<?xml version="1.0" encoding="utf-8"?>
<!-- Generator: Adobe Illustrator 18.0.0, SVG Export Plug-In . SVG Version: 6.00 Build 0)  -->
<!DOCTYPE svg PUBLIC "-//W3C//DTD SVG 1.1//EN" "http://www.w3.org/Graphics/SVG/1.1/DTD/svg11.dtd">
<svg version="1.1" id="Icon_Set" xmlns="http://www.w3.org/2000/svg" xmlns:xlink="http://www.w3.org/1999/xlink" x="0px" y="0px"
	 viewBox="0 0 256 256" style="enable-background:new 0 0 256 256;" xml:space="preserve">
<style type="text/css">
	.st0{fill:#4C4372;}
	.st1{fill:#F0C48A;}
	.st2{fill:#FD919E;}
	.st3{fill:#D3E6F8;}
	.st4{fill:#A4CFF2;}
	.st5{fill:#FFFFFF;}
	.st6{fill:#7BABF1;}
	.st7{fill:#E8677D;}
</style>
<g>
	<g>
		<g>
			<circle class="st1" cx="128" cy="128" r="103.5"/>
		</g>
	</g>
	<g>
		<circle class="st2" cx="155.476" cy="200.71" r="8.562"/>
	</g>
	<g>
		<path class="st0" d="M155.476,195.148c-1.657,0-3-1.343-3-3v-14.77c0-1.657,1.343-3,3-3s3,1.343,3,3v14.77
			C158.476,193.805,157.133,195.148,155.476,195.148z"/>
	</g>
	<g>
		<path class="st0" d="M155.476,212.272c-6.375,0-11.562-5.187-11.562-11.563s5.187-11.562,11.562-11.562
			c6.376,0,11.563,5.187,11.563,11.562S161.852,212.272,155.476,212.272z M155.476,195.148c-3.066,0-5.562,2.495-5.562,5.562
			c0,3.067,2.495,5.563,5.562,5.563c3.067,0,5.563-2.495,5.563-5.563C161.038,197.643,158.543,195.148,155.476,195.148z"/>
	</g>
	<g>
		<circle class="st2" cx="128" cy="210.71" r="8.562"/>
	</g>
	<g>
		<path class="st0" d="M127.999,205.148c-1.657,0-3-1.343-3-3v-24.77c0-1.657,1.343-3,3-3s3,1.343,3,3v24.77
			C130.999,203.805,129.656,205.148,127.999,205.148z"/>
	</g>
	<g>
		<path class="st0" d="M127.999,222.272c-6.374,0-11.561-5.187-11.561-11.563s5.187-11.562,11.561-11.562
			c6.376,0,11.563,5.187,11.563,11.562S134.375,222.272,127.999,222.272z M127.999,205.148c-3.066,0-5.561,2.495-5.561,5.562
			c0,3.067,2.494,5.563,5.561,5.563c3.067,0,5.563-2.495,5.563-5.563C133.562,207.643,131.066,205.148,127.999,205.148z"/>
	</g>
	<g>
		<circle class="st2" cx="100.524" cy="200.71" r="8.562"/>
	</g>
	<g>
		<path class="st0" d="M100.523,195.148c-1.657,0-3-1.343-3-3v-14.77c0-1.657,1.343-3,3-3s3,1.343,3,3v14.77
			C103.523,193.805,102.181,195.148,100.523,195.148z"/>
	</g>
	<g>
		<path class="st0" d="M100.523,212.272c-6.375,0-11.562-5.187-11.562-11.563s5.187-11.562,11.562-11.562
			c6.376,0,11.563,5.187,11.563,11.562S106.899,212.272,100.523,212.272z M100.523,195.148c-3.066,0-5.562,2.495-5.562,5.562
			c0,3.067,2.495,5.563,5.562,5.563c3.067,0,5.563-2.495,5.563-5.563C106.086,197.643,103.591,195.148,100.523,195.148z"/>
	</g>
	<g>
		<circle class="st2" cx="100.524" cy="55.29" r="8.562"/>
	</g>
	<g>
		<path class="st0" d="M100.524,81.622c-1.657,0-3-1.343-3-3v-14.77c0-1.657,1.343-3,3-3s3,1.343,3,3v14.77
			C103.524,80.279,102.182,81.622,100.524,81.622z"/>
	</g>
	<g>
		<path class="st0" d="M100.524,66.852c-6.376,0-11.563-5.187-11.563-11.562s5.187-11.563,11.563-11.563
			c6.375,0,11.562,5.187,11.562,11.563S106.899,66.852,100.524,66.852z M100.524,49.728c-3.067,0-5.563,2.495-5.563,5.563
			c0,3.067,2.495,5.562,5.563,5.562c3.066,0,5.562-2.495,5.562-5.562C106.086,52.223,103.591,49.728,100.524,49.728z"/>
	</g>
	<g>
		<circle class="st2" cx="128" cy="45.29" r="8.562"/>
	</g>
	<g>
		<path class="st0" d="M128.001,81.622c-1.657,0-3-1.343-3-3v-24.77c0-1.657,1.343-3,3-3s3,1.343,3,3v24.77
			C131.001,80.279,129.658,81.622,128.001,81.622z"/>
	</g>
	<g>
		<path class="st0" d="M128.001,56.852c-6.376,0-11.563-5.187-11.563-11.562s5.187-11.563,11.563-11.563
			c6.374,0,11.561,5.187,11.561,11.563S134.375,56.852,128.001,56.852z M128.001,39.728c-3.067,0-5.563,2.495-5.563,5.563
			c0,3.067,2.495,5.562,5.563,5.562c3.066,0,5.561-2.495,5.561-5.562C133.562,42.223,131.067,39.728,128.001,39.728z"/>
	</g>
	<g>
		<circle class="st2" cx="155.476" cy="55.29" r="8.562"/>
	</g>
	<g>
		<path class="st0" d="M155.477,81.622c-1.657,0-3-1.343-3-3v-14.77c0-1.657,1.343-3,3-3s3,1.343,3,3v14.77
			C158.477,80.279,157.134,81.622,155.477,81.622z"/>
	</g>
	<g>
		<path class="st0" d="M155.477,66.852c-6.376,0-11.563-5.187-11.563-11.562s5.187-11.563,11.563-11.563
			c6.375,0,11.562,5.187,11.562,11.563S161.852,66.852,155.477,66.852z M155.477,49.728c-3.067,0-5.563,2.495-5.563,5.563
			c0,3.067,2.495,5.562,5.563,5.562c3.066,0,5.562-2.495,5.562-5.562C161.038,52.223,158.543,49.728,155.477,49.728z"/>
	</g>
	<g>
		<circle class="st2" cx="55.29" cy="155.476" r="8.562"/>
	</g>
	<g>
		<path class="st0" d="M78.622,158.476h-14.77c-1.657,0-3-1.343-3-3s1.343-3,3-3h14.77c1.657,0,3,1.343,3,3
			S80.279,158.476,78.622,158.476z"/>
	</g>
	<g>
		<path class="st0" d="M55.29,167.038c-6.376,0-11.563-5.187-11.563-11.563c0-6.375,5.187-11.562,11.563-11.562
			s11.563,5.187,11.563,11.562C66.853,161.851,61.666,167.038,55.29,167.038z M55.29,149.914c-3.067,0-5.563,2.495-5.563,5.562
			c0,3.067,2.495,5.563,5.563,5.563s5.563-2.495,5.563-5.563C60.853,152.409,58.357,149.914,55.29,149.914z"/>
	</g>
	<g>
		<circle class="st2" cx="45.29" cy="128" r="8.562"/>
	</g>
	<g>
		<path class="st0" d="M78.622,131h-24.77c-1.657,0-3-1.343-3-3s1.343-3,3-3h24.77c1.657,0,3,1.343,3,3S80.279,131,78.622,131z"/>
	</g>
	<g>
		<path class="st0" d="M45.29,139.562c-6.376,0-11.563-5.187-11.563-11.563c0-6.375,5.187-11.562,11.563-11.562
			S56.853,121.625,56.853,128C56.853,134.375,51.666,139.562,45.29,139.562z M45.29,122.438c-3.067,0-5.563,2.495-5.563,5.562
			c0,3.067,2.495,5.563,5.563,5.563s5.563-2.495,5.563-5.563C50.853,124.933,48.357,122.438,45.29,122.438z"/>
	</g>
	<g>
		<circle class="st2" cx="55.29" cy="100.524" r="8.562"/>
	</g>
	<g>
		<path class="st0" d="M78.622,103.523h-14.77c-1.657,0-3-1.343-3-3s1.343-3,3-3h14.77c1.657,0,3,1.343,3,3
			S80.279,103.523,78.622,103.523z"/>
	</g>
	<g>
		<path class="st0" d="M55.29,112.086c-6.376,0-11.563-5.187-11.563-11.563c0-6.375,5.187-11.562,11.563-11.562
			s11.563,5.187,11.563,11.562C66.853,106.899,61.666,112.086,55.29,112.086z M55.29,94.962c-3.067,0-5.563,2.495-5.563,5.562
			c0,3.067,2.495,5.563,5.563,5.563s5.563-2.495,5.563-5.563C60.853,97.457,58.357,94.962,55.29,94.962z"/>
	</g>
	<g>
		<circle class="st2" cx="200.71" cy="100.524" r="8.562"/>
	</g>
	<g>
		<path class="st0" d="M192.147,103.524h-14.77c-1.657,0-3-1.343-3-3s1.343-3,3-3h14.77c1.657,0,3,1.343,3,3
			S193.805,103.524,192.147,103.524z"/>
	</g>
	<g>
		<path class="st0" d="M200.71,112.086c-6.376,0-11.563-5.187-11.563-11.562c0-6.375,5.187-11.563,11.563-11.563
			s11.563,5.187,11.563,11.563C212.272,106.899,207.086,112.086,200.71,112.086z M200.71,94.962c-3.067,0-5.563,2.495-5.563,5.563
			c0,3.066,2.495,5.562,5.563,5.562s5.563-2.495,5.563-5.562C206.272,97.457,203.777,94.962,200.71,94.962z"/>
	</g>
	<g>
		<circle class="st2" cx="210.71" cy="128" r="8.562"/>
	</g>
	<g>
		<path class="st0" d="M202.147,131h-24.77c-1.657,0-3-1.343-3-3s1.343-3,3-3h24.77c1.657,0,3,1.343,3,3S203.805,131,202.147,131z"
			/>
	</g>
	<g>
		<path class="st0" d="M210.71,139.562c-6.376,0-11.563-5.187-11.563-11.562c0-6.375,5.187-11.563,11.563-11.563
			s11.563,5.187,11.563,11.563C222.272,134.375,217.086,139.562,210.71,139.562z M210.71,122.438c-3.067,0-5.563,2.495-5.563,5.563
			c0,3.066,2.495,5.562,5.563,5.562s5.563-2.495,5.563-5.562C216.272,124.933,213.777,122.438,210.71,122.438z"/>
	</g>
	<g>
		<circle class="st2" cx="200.71" cy="155.476" r="8.562"/>
	</g>
	<g>
		<path class="st0" d="M192.147,158.477h-14.77c-1.657,0-3-1.343-3-3s1.343-3,3-3h14.77c1.657,0,3,1.343,3,3
			S193.805,158.477,192.147,158.477z"/>
	</g>
	<g>
		<path class="st0" d="M200.71,167.038c-6.376,0-11.563-5.187-11.563-11.562c0-6.375,5.187-11.563,11.563-11.563
			s11.563,5.187,11.563,11.563C212.272,161.852,207.086,167.038,200.71,167.038z M200.71,149.914c-3.067,0-5.563,2.495-5.563,5.563
			c0,3.066,2.495,5.562,5.563,5.562s5.563-2.495,5.563-5.562C206.272,152.409,203.777,149.914,200.71,149.914z"/>
	</g>
	<g>
		<path class="st4" d="M164.51,177.378H91.49c-7.107,0-12.868-5.761-12.868-12.868V91.49c0-7.107,5.761-12.868,12.868-12.868h73.02
			c7.107,0,12.868,5.761,12.868,12.868v73.02C177.378,171.617,171.617,177.378,164.51,177.378z"/>
	</g>
	<g>
		<path class="st6" d="M164.51,78.622h-12.85c7.107,0,12.868,5.761,12.868,12.868v73.02c0,7.107-5.761,12.868-12.868,12.868h12.85
			c7.107,0,12.868-5.761,12.868-12.868V91.49C177.378,84.383,171.617,78.622,164.51,78.622z"/>
	</g>
	<g>
		<path class="st0" d="M164.51,180.378H91.49c-8.75,0-15.868-7.119-15.868-15.868V91.49c0-8.75,7.118-15.868,15.868-15.868h73.02
			c8.75,0,15.868,7.119,15.868,15.868v73.02C180.378,173.259,173.26,180.378,164.51,180.378z M91.49,81.622
			c-5.441,0-9.868,4.427-9.868,9.868v73.02c0,5.441,4.427,9.868,9.868,9.868h73.02c5.441,0,9.868-4.427,9.868-9.868V91.49
			c0-5.441-4.427-9.868-9.868-9.868H91.49z"/>
	</g>
	<g>
		<path class="st6" d="M144.793,155.064h-33.586c-5.672,0-10.271-4.599-10.271-10.271v-33.586c0-5.672,4.599-10.271,10.271-10.271
			h33.586c5.672,0,10.271,4.599,10.271,10.271v33.586C155.064,150.465,150.465,155.064,144.793,155.064z"/>
	</g>
	<g>
		<path class="st0" d="M144.793,158.063h-33.586c-7.317,0-13.271-5.953-13.271-13.271v-33.586c0-7.317,5.953-13.271,13.271-13.271
			h33.586c7.317,0,13.271,5.953,13.271,13.271v33.586C158.063,152.11,152.11,158.063,144.793,158.063z M111.207,103.937
			c-4.009,0-7.271,3.262-7.271,7.271v33.586c0,4.009,3.262,7.271,7.271,7.271h33.586c4.009,0,7.271-3.262,7.271-7.271v-33.586
			c0-4.009-3.262-7.271-7.271-7.271H111.207z"/>
	</g>
</g>
</svg>
